<svg width="320" height="320" viewBox="0 0 320 320" fill="none" xmlns="http://www.w3.org/2000/svg">
<path d="M90 160C87.3478 160 84.8043 161.054 82.9289 162.929C81.0536 164.804 80 167.348 80 170V220C80 222.652 81.0536 225.196 82.9289 227.071C84.8043 228.946 87.3478 230 90 230C92.6522 230 95.1957 228.946 97.0711 227.071C98.9464 225.196 100 222.652 100 220V210H105C111.63 210 117.989 207.366 122.678 202.678C127.366 197.989 130 191.63 130 185C130 178.37 127.366 172.011 122.678 167.322C117.989 162.634 111.63 160 105 160H90ZM105 190H100V180H105C106.326 180 107.598 180.527 108.536 181.464C109.473 182.402 110 183.674 110 185C110 186.326 109.473 187.598 108.536 188.536C107.598 189.473 106.326 190 105 190ZM140 170C140 167.348 141.054 164.804 142.929 162.929C144.804 161.054 147.348 160 150 160H155C164.283 160 173.185 163.687 179.749 170.251C186.313 176.815 190 185.717 190 195C190 204.283 186.313 213.185 179.749 219.749C173.185 226.313 164.283 230 155 230H150C147.348 230 144.804 228.946 142.929 227.071C141.054 225.196 140 222.652 140 220V170ZM160 209.15C162.93 208.119 165.468 206.204 167.263 203.67C169.058 201.135 170.022 198.106 170.022 195C170.022 191.894 169.058 188.865 167.263 186.33C165.468 183.796 162.93 181.881 160 180.85V209.15ZM200 220V170C200 167.348 201.054 164.804 202.929 162.929C204.804 161.054 207.348 160 210 160H240C242.652 160 245.196 161.054 247.071 162.929C248.946 164.804 250 167.348 250 170C250 172.652 248.946 175.196 247.071 177.071C245.196 178.946 242.652 180 240 180H220V190H240C242.652 190 245.196 191.054 247.071 192.929C248.946 194.804 250 197.348 250 200C250 202.652 248.946 205.196 247.071 207.071C245.196 208.946 242.652 210 240 210H220V220C220 222.652 218.946 225.196 217.071 227.071C215.196 228.946 212.652 230 210 230C207.348 230 204.804 228.946 202.929 227.071C201.054 225.196 200 222.652 200 220ZM60 50V130H50C44.6957 130 39.6086 132.107 35.8579 135.858C32.1071 139.609 30 144.696 30 150V240C30 245.304 32.1071 250.391 35.8579 254.142C39.6086 257.893 44.6957 260 50 260H60V270C60 277.956 63.1607 285.587 68.7868 291.213C74.4129 296.839 82.0435 300 90 300H230C237.956 300 245.587 296.839 251.213 291.213C256.839 285.587 260 277.956 260 270V260H270C275.304 260 280.391 257.893 284.142 254.142C287.893 250.391 290 245.304 290 240V150C290 144.696 287.893 139.609 284.142 135.858C280.391 132.107 275.304 130 270 130H260V98.28C259.996 90.3276 256.834 82.7023 251.21 77.08L202.93 28.78C197.304 23.1572 189.674 19.999 181.72 20H90C82.0435 20 74.4129 23.1607 68.7868 28.7868C63.1607 34.4129 60 42.0435 60 50V50ZM90 40H160V90C160 97.9565 163.161 105.587 168.787 111.213C174.413 116.839 182.044 120 190 120H240V130H80V50C80 47.3478 81.0536 44.8043 82.9289 42.9289C84.8043 41.0536 87.3478 40 90 40V40ZM80 270V260H240V270C240 272.652 238.946 275.196 237.071 277.071C235.196 278.946 232.652 280 230 280H90C87.3478 280 84.8043 278.946 82.9289 277.071C81.0536 275.196 80 272.652 80 270ZM240 98.28V100H190C187.348 100 184.804 98.9464 182.929 97.0711C181.054 95.1957 180 92.6522 180 90V40H181.72C184.372 40.0006 186.915 41.0545 188.79 42.93L237.07 91.21C238.946 93.0849 239.999 95.6281 240 98.28V98.28ZM50 150H270V240H50V150Z" fill="#864921"/>
</svg>
