<svg width="43" height="52" viewBox="0 0 43 52" fill="none" xmlns="http://www.w3.org/2000/svg">
<path d="M3.91606 0C1.76606 0 0 1.86217 0 4.12917V47.6878C0 49.9548 1.76606 51.817 3.91606 51.817H39.0838C41.2338 51.817 42.9998 49.9548 42.9998 47.6878V16.4357L28.4874 0L3.91606 0Z" fill="#8C181A"/>
<path d="M42.9997 16.5167V17.3263H33.1711C33.1711 17.3263 28.3337 16.2738 28.4872 11.9017C28.4872 11.9017 28.6408 16.5167 33.0943 16.5167H42.9997Z" fill="#6B0D12"/>
<path opacity="0.5" d="M28.4875 0V11.8208C28.4875 13.1971 29.3322 16.5167 33.1715 16.5167H43L28.4875 0Z" fill="white"/>
<path d="M11.4413 39.6723H8.9074V42.9918C8.9074 43.3157 8.67704 43.5586 8.29311 43.5586C7.98597 43.5586 7.75562 43.3157 7.75562 42.9918V34.7335C7.75562 34.2477 8.13954 33.8429 8.60025 33.8429H11.4413C13.2842 33.8429 14.3592 35.2193 14.3592 36.7576C14.3592 38.3769 13.2842 39.6723 11.4413 39.6723V39.6723ZM11.3645 34.8954H8.9074V38.6198H11.3645C12.4395 38.6198 13.2074 37.8911 13.2074 36.7576C13.2074 35.6241 12.4395 34.8954 11.3645 34.8954V34.8954ZM19.3502 43.5586H17.0466C16.5859 43.5586 16.202 43.1538 16.202 42.668V34.7335C16.202 34.2477 16.5859 33.8429 17.0466 33.8429H19.3502C22.1913 33.8429 24.1109 35.948 24.1109 38.7007C24.1109 41.4535 22.2681 43.5586 19.3502 43.5586V43.5586ZM19.3502 34.8954H17.3538V42.4251H19.3502C21.577 42.4251 22.8823 40.7248 22.8823 38.6198C22.9591 36.5957 21.6538 34.8954 19.3502 34.8954V34.8954ZM31.8662 34.8954H27.4127V38.053H31.7894C32.0966 38.053 32.2502 38.2959 32.2502 38.6198C32.2502 38.9436 32.0198 39.1056 31.7894 39.1056H27.4127V42.9918C27.4127 43.3157 27.1823 43.5586 26.7984 43.5586C26.4913 43.5586 26.2609 43.3157 26.2609 42.9918V34.7335C26.2609 34.2477 26.6448 33.8429 27.1055 33.8429H31.8662C32.1734 33.8429 32.3269 34.0858 32.3269 34.4096C32.4037 34.6525 32.1734 34.8954 31.8662 34.8954V34.8954Z" fill="white"/>
</svg>
